<?xml version="1.0" standalone="no"?>
<!DOCTYPE svg PUBLIC "-//W3C//DTD SVG 20010904//EN"
 "http://www.w3.org/TR/2001/REC-SVG-20010904/DTD/svg10.dtd">
<svg version="1.0" xmlns="http://www.w3.org/2000/svg"
 width="525.000000pt" height="62.000000pt" viewBox="0 0 525.000000 62.000000"
 preserveAspectRatio="xMidYMid meet">

<g transform="translate(0.000000,62.000000) scale(0.100000,-0.100000)"
fill="#000000" stroke="none">
<path d="M695 440 c-11 -17 5 -30 36 -30 l29 0 0 -104 0 -105 -42 -3 c-30 -2
-43 -8 -43 -18 0 -12 18 -15 105 -15 87 0 105 3 105 15 0 10 -12 16 -37 18
l-38 3 0 125 0 124 -54 0 c-30 0 -58 -4 -61 -10z"/>
<path d="M1030 430 c0 -15 7 -20 25 -20 18 0 25 5 25 20 0 15 -7 20 -25 20
-18 0 -25 -5 -25 -20z"/>
<path d="M3527 444 c-13 -14 7 -34 34 -34 l29 0 0 -105 0 -105 -40 0 c-34 0
-40 -3 -40 -20 0 -20 5 -21 108 -18 87 2 107 6 107 18 0 10 -13 16 -42 18
l-43 3 0 125 0 124 -53 0 c-30 0 -56 -3 -60 -6z"/>
<path d="M4777 444 c-9 -10 4 -34 19 -34 9 0 14 -11 14 -28 0 -27 -1 -28 -61
-27 -56 0 -63 -2 -90 -33 -48 -53 -38 -126 21 -157 36 -19 67 -19 103 -1 15 8
27 10 27 5 0 -15 83 -6 88 9 2 7 -5 16 -17 19 -20 5 -21 12 -21 129 l0 124
-38 0 c-21 0 -41 -3 -45 -6z m13 -144 c42 -42 14 -110 -44 -110 -37 0 -49 7
-65 37 -32 62 58 124 109 73z"/>
<path d="M100 410 c0 -11 7 -20 15 -20 12 0 15 -17 15 -94 0 -85 -2 -94 -20
-99 -14 -3 -18 -10 -14 -21 9 -23 159 -19 159 4 0 10 -12 16 -37 18 -36 3 -38
5 -38 38 0 27 4 34 20 34 10 0 23 -7 28 -17 17 -30 42 -8 42 37 0 45 -25 67
-42 37 -5 -10 -18 -17 -28 -17 -17 0 -20 7 -20 40 l0 40 59 0 c54 0 60 -2 63
-22 2 -15 10 -23 23 -23 16 0 21 8 23 43 l3 42 -125 0 c-119 0 -126 -1 -126
-20z"/>
<path d="M2145 416 c-86 -37 -99 -190 -21 -241 56 -37 176 -24 192 20 12 30
-12 39 -42 16 -39 -30 -98 -28 -131 5 -23 23 -25 31 -21 81 6 64 30 93 78 93
41 0 60 -10 71 -36 4 -13 15 -24 23 -24 17 0 30 51 21 80 -7 21 -30 27 -40 10
-4 -7 -12 -7 -25 0 -25 14 -69 12 -105 -4z"/>
<path d="M2900 416 c0 -8 8 -20 18 -25 10 -5 38 -59 62 -121 41 -101 47 -111
69 -108 20 3 31 20 70 110 25 59 55 114 66 122 31 23 7 38 -56 34 -40 -2 -54
-7 -54 -18 0 -8 10 -16 21 -18 21 -3 21 -4 -9 -78 -17 -40 -34 -74 -37 -74 -3
0 -20 34 -37 74 -30 74 -30 75 -9 78 11 2 21 10 21 18 0 11 -15 16 -62 18 -51
2 -63 0 -63 -12z"/>
<path d="M430 343 c-93 -48 -69 -169 37 -189 53 -10 137 7 141 29 3 16 -3 17
-70 11 -65 -6 -76 -4 -98 15 l-25 20 98 1 97 0 0 30 c0 76 -103 123 -180 83z
m108 -39 c37 -26 25 -34 -50 -34 l-71 0 23 25 c27 29 65 32 98 9z"/>
<path d="M975 350 c-11 -17 5 -30 36 -30 29 0 29 0 29 -59 l0 -60 -42 -3 c-30
-2 -43 -8 -43 -18 0 -12 19 -16 99 -18 111 -3 128 0 120 23 -4 10 -19 15 -45
15 l-39 0 0 80 0 80 -54 0 c-30 0 -58 -4 -61 -10z"/>
<path d="M1205 350 c-8 -14 3 -30 21 -30 11 0 14 -20 14 -104 0 -97 -1 -104
-21 -109 -12 -3 -19 -12 -17 -19 7 -20 143 -18 143 2 0 9 -11 16 -27 18 -25 3
-28 8 -28 39 0 30 3 34 18 28 62 -27 132 -6 158 48 14 30 14 37 1 68 -23 55
-99 85 -150 58 -16 -9 -22 -9 -25 0 -5 14 -78 15 -87 1z m202 -52 c28 -26 29
-52 3 -78 -39 -39 -120 -12 -120 40 0 28 35 60 67 60 15 0 37 -10 50 -22z"/>
<path d="M1575 348 c-48 -26 -65 -51 -65 -93 0 -82 90 -125 198 -95 65 17 49
36 -27 32 -61 -4 -121 11 -121 29 0 5 43 9 95 9 89 0 95 1 95 20 0 34 -28 79
-60 95 -34 18 -86 19 -115 3z m105 -53 l23 -25 -72 0 c-68 0 -71 1 -61 19 20
38 77 41 110 6z"/>
<path d="M3268 353 c-20 -3 -28 -10 -28 -24 0 -19 4 -20 55 -14 38 5 60 4 70
-5 26 -21 17 -30 -30 -30 -79 0 -138 -46 -115 -90 22 -41 74 -51 125 -24 19
10 31 11 33 5 2 -6 21 -11 43 -11 32 0 39 3 39 20 0 13 -7 20 -20 20 -18 0
-20 7 -20 58 0 77 -14 94 -76 97 -27 2 -61 1 -76 -2z m109 -129 c4 -13 -47
-34 -83 -34 -31 0 -41 20 -18 37 22 16 96 14 101 -3z"/>
<path d="M3765 350 c-9 -14 3 -30 23 -30 12 0 28 -26 52 -80 31 -70 38 -80 61
-80 23 0 31 10 65 80 27 57 43 80 56 80 11 0 18 7 18 20 0 18 -7 20 -60 20
-53 0 -60 -2 -60 -20 0 -11 7 -20 14 -20 12 0 11 -10 -6 -51 l-22 -51 -23 47
c-23 44 -23 48 -7 59 9 7 14 18 10 24 -9 15 -112 16 -121 2z"/>
<path d="M4124 346 c-68 -30 -85 -103 -36 -157 23 -25 38 -32 78 -36 66 -6
128 8 132 30 3 16 -3 17 -70 11 -65 -6 -76 -4 -98 15 l-25 20 98 1 97 0 0 28
c0 37 -25 71 -66 88 -41 17 -70 17 -110 0z m106 -48 l25 -23 -38 -3 c-20 -2
-53 -2 -73 0 l-35 3 21 23 c12 12 33 22 49 22 15 0 38 -10 51 -22z"/>
<path d="M4365 350 c-9 -15 4 -30 26 -30 17 0 19 -7 19 -59 0 -58 -1 -60 -27
-63 -17 -2 -28 -9 -28 -18 0 -12 18 -15 100 -15 82 0 100 3 100 15 0 11 -13
16 -48 18 l-48 3 3 42 c3 35 8 44 37 61 27 15 37 17 52 8 28 -18 41 -14 37 10
-5 34 -49 46 -93 25 -30 -14 -35 -15 -35 -2 0 11 -12 15 -44 15 -25 0 -48 -4
-51 -10z"/>
<path d="M4963 340 c-61 -37 -71 -99 -24 -152 27 -31 34 -33 93 -33 75 0 121
11 115 28 -3 8 -25 11 -73 9 -59 -3 -74 0 -94 17 l-25 20 98 1 97 0 0 28 c0
37 -25 71 -66 88 -46 19 -83 17 -121 -6z m117 -42 l25 -23 -38 -3 c-20 -2 -53
-2 -73 0 l-35 3 21 23 c12 12 33 22 49 22 15 0 38 -10 51 -22z"/>
<path d="M2454 195 c-9 -23 3 -45 24 -45 29 0 48 26 32 45 -7 8 -21 15 -32 15
-10 0 -21 -7 -24 -15z"/>
</g>
</svg>
